<mxfile host="Electron" agent="Mozilla/5.0 (Windows NT 10.0; Win64; x64) AppleWebKit/537.36 (KHTML, like Gecko) draw.io/28.0.4 Chrome/138.0.7204.97 Electron/37.2.1 Safari/537.36" version="28.0.4">
  <diagram name="Page-1" id="mVFfSMtklnBvnMsJZJNf">
    <mxGraphModel dx="1501" dy="894" grid="1" gridSize="10" guides="1" tooltips="1" connect="1" arrows="1" fold="1" page="1" pageScale="1" pageWidth="1600" pageHeight="900" math="0" shadow="0">
      <root>
        <mxCell id="0" />
        <mxCell id="1" parent="0" />
        <mxCell id="VkBxCyh6oDg-tgL7otwm-2" value="" style="rounded=0;whiteSpace=wrap;html=1;fillColor=#0E0E0E;strokeColor=#FFFFFF;" vertex="1" parent="1">
          <mxGeometry x="320" y="200" width="180" height="490" as="geometry" />
        </mxCell>
        <mxCell id="VkBxCyh6oDg-tgL7otwm-3" value="&lt;font style=&quot;font-size: 24px;&quot;&gt;Sources&lt;/font&gt;" style="rounded=0;whiteSpace=wrap;html=1;fillColor=none;strokeColor=none;fontColor=#FFFFFF;" vertex="1" parent="1">
          <mxGeometry x="350" y="150" width="120" height="60" as="geometry" />
        </mxCell>
        <mxCell id="VkBxCyh6oDg-tgL7otwm-4" value="" style="rounded=0;whiteSpace=wrap;html=1;fillColor=#0E0E0E;strokeColor=#FFFFFF;" vertex="1" parent="1">
          <mxGeometry x="530" y="200" width="540" height="490" as="geometry" />
        </mxCell>
        <mxCell id="VkBxCyh6oDg-tgL7otwm-5" value="&lt;font style=&quot;font-size: 24px;&quot;&gt;Data Warehouse&lt;/font&gt;" style="rounded=0;whiteSpace=wrap;html=1;fillColor=none;strokeColor=none;fontColor=#FFFFFF;" vertex="1" parent="1">
          <mxGeometry x="695" y="150" width="210" height="60" as="geometry" />
        </mxCell>
        <mxCell id="VkBxCyh6oDg-tgL7otwm-7" value="" style="rounded=0;whiteSpace=wrap;html=1;fillColor=#0E0E0E;strokeColor=#FFFFFF;" vertex="1" parent="1">
          <mxGeometry x="1100" y="200" width="180" height="490" as="geometry" />
        </mxCell>
        <mxCell id="VkBxCyh6oDg-tgL7otwm-8" value="&lt;font style=&quot;font-size: 24px;&quot;&gt;Consume&lt;/font&gt;" style="rounded=0;whiteSpace=wrap;html=1;fillColor=none;strokeColor=none;fontColor=#FFFFFF;" vertex="1" parent="1">
          <mxGeometry x="1130" y="150" width="120" height="60" as="geometry" />
        </mxCell>
        <mxCell id="VkBxCyh6oDg-tgL7otwm-9" value="&lt;font&gt;&lt;b&gt;Bronze Layer&lt;/b&gt;&lt;/font&gt;" style="rounded=0;whiteSpace=wrap;html=1;fillColor=#82572C;strokeColor=#d79b00;gradientColor=#CE8946;gradientDirection=north;fontColor=#593C1E;fontSize=16;" vertex="1" parent="1">
          <mxGeometry x="555" y="220" width="140" height="30" as="geometry" />
        </mxCell>
        <mxCell id="VkBxCyh6oDg-tgL7otwm-10" value="&lt;div&gt;&lt;br&gt;&lt;/div&gt;&lt;div&gt;&lt;br&gt;&lt;/div&gt;" style="rounded=0;whiteSpace=wrap;html=1;fillColor=none;strokeColor=#d79b00;gradientColor=#CE8946;gradientDirection=north;fontColor=#593C1E;fontSize=16;" vertex="1" parent="1">
          <mxGeometry x="555" y="260" width="140" height="410" as="geometry" />
        </mxCell>
        <mxCell id="VkBxCyh6oDg-tgL7otwm-11" value="&lt;b&gt;&lt;font style=&quot;color: rgb(78, 78, 78);&quot;&gt;Silver&amp;nbsp;&lt;/font&gt;&lt;span style=&quot;color: rgb(78, 78, 78); background-color: transparent;&quot;&gt;Layer&lt;/span&gt;&lt;/b&gt;" style="rounded=0;whiteSpace=wrap;html=1;fillColor=#f5f5f5;strokeColor=#666666;gradientColor=#C4C4C4;gradientDirection=north;fontSize=16;" vertex="1" parent="1">
          <mxGeometry x="730" y="220" width="140" height="30" as="geometry" />
        </mxCell>
        <mxCell id="VkBxCyh6oDg-tgL7otwm-12" value="&lt;div&gt;&lt;br&gt;&lt;/div&gt;&lt;div&gt;&lt;br&gt;&lt;/div&gt;" style="rounded=0;whiteSpace=wrap;html=1;fillColor=none;strokeColor=#C4C4C4;gradientColor=#b3b3b3;gradientDirection=north;fontSize=16;strokeWidth=2;" vertex="1" parent="1">
          <mxGeometry x="730" y="260" width="140" height="410" as="geometry" />
        </mxCell>
        <mxCell id="VkBxCyh6oDg-tgL7otwm-13" value="&lt;font style=&quot;color: rgb(133, 106, 0);&quot;&gt;&lt;b style=&quot;&quot;&gt;Gold Layer&lt;/b&gt;&lt;/font&gt;" style="rounded=0;whiteSpace=wrap;html=1;fillColor=#fff2cc;strokeColor=#d6b656;gradientColor=#EFBF04;gradientDirection=north;fontSize=16;" vertex="1" parent="1">
          <mxGeometry x="905" y="220" width="140" height="30" as="geometry" />
        </mxCell>
        <mxCell id="VkBxCyh6oDg-tgL7otwm-14" value="&lt;div&gt;&lt;br&gt;&lt;/div&gt;&lt;div&gt;&lt;br&gt;&lt;/div&gt;" style="rounded=0;whiteSpace=wrap;html=1;fillColor=none;strokeColor=#EFBF04;gradientColor=#ffd966;gradientDirection=north;fontSize=16;" vertex="1" parent="1">
          <mxGeometry x="905" y="260" width="140" height="410" as="geometry" />
        </mxCell>
        <mxCell id="VkBxCyh6oDg-tgL7otwm-15" value="&lt;b&gt;CRM&lt;/b&gt;" style="sketch=0;pointerEvents=1;shadow=0;dashed=0;html=1;strokeColor=none;fillColor=#505050;labelPosition=center;verticalLabelPosition=bottom;verticalAlign=top;outlineConnect=0;align=center;shape=mxgraph.office.concepts.folder;fontColor=#FFFFFF;" vertex="1" parent="1">
          <mxGeometry x="378.90999999999997" y="331" width="53" height="50" as="geometry" />
        </mxCell>
        <mxCell id="VkBxCyh6oDg-tgL7otwm-19" value="" style="image;aspect=fixed;html=1;points=[];align=center;fontSize=12;image=img/lib/azure2/general/File.svg;" vertex="1" parent="1">
          <mxGeometry x="416.74" y="357" width="24.35" height="30" as="geometry" />
        </mxCell>
        <mxCell id="VkBxCyh6oDg-tgL7otwm-20" value="&lt;b&gt;ERP&lt;/b&gt;" style="sketch=0;pointerEvents=1;shadow=0;dashed=0;html=1;strokeColor=none;fillColor=#505050;labelPosition=center;verticalLabelPosition=bottom;verticalAlign=top;outlineConnect=0;align=center;shape=mxgraph.office.concepts.folder;fontColor=#FEFEFE;" vertex="1" parent="1">
          <mxGeometry x="378.90999999999997" y="451" width="53" height="50" as="geometry" />
        </mxCell>
        <mxCell id="VkBxCyh6oDg-tgL7otwm-21" value="" style="image;aspect=fixed;html=1;points=[];align=center;fontSize=12;image=img/lib/azure2/general/File.svg;" vertex="1" parent="1">
          <mxGeometry x="416.74" y="477" width="24.35" height="30" as="geometry" />
        </mxCell>
        <mxCell id="VkBxCyh6oDg-tgL7otwm-24" value="" style="endArrow=none;dashed=1;html=1;rounded=0;entryX=0.889;entryY=0.808;entryDx=0;entryDy=0;entryPerimeter=0;exitX=0.111;exitY=0.808;exitDx=0;exitDy=0;exitPerimeter=0;strokeColor=#FFFFFF;" edge="1" parent="1">
          <mxGeometry width="50" height="50" relative="1" as="geometry">
            <mxPoint x="339.98" y="549.0000000000001" as="sourcePoint" />
            <mxPoint x="480.02" y="549.0000000000001" as="targetPoint" />
          </mxGeometry>
        </mxCell>
        <mxCell id="VkBxCyh6oDg-tgL7otwm-25" value="&lt;b&gt;Object Type&lt;/b&gt;: CSV File&lt;br&gt;&lt;b&gt;Interface&lt;/b&gt;: Files in folder" style="text;html=1;align=center;verticalAlign=middle;whiteSpace=wrap;rounded=0;fontColor=#FEFEFE;" vertex="1" parent="1">
          <mxGeometry x="343.75" y="569" width="132.5" height="30" as="geometry" />
        </mxCell>
        <mxCell id="VkBxCyh6oDg-tgL7otwm-26" value="" style="html=1;verticalLabelPosition=bottom;align=center;labelBackgroundColor=#ffffff;verticalAlign=top;strokeWidth=2;strokeColor=#d79b00;shadow=0;dashed=0;shape=mxgraph.ios7.icons.data;fillColor=#6F5913;gradientColor=#CE8946;gradientDirection=north;" vertex="1" parent="1">
          <mxGeometry x="592.01" y="294" width="65.98" height="80" as="geometry" />
        </mxCell>
        <mxCell id="VkBxCyh6oDg-tgL7otwm-27" value="" style="html=1;verticalLabelPosition=bottom;align=center;labelBackgroundColor=#ffffff;verticalAlign=top;strokeWidth=2;strokeColor=#666666;shadow=0;dashed=0;shape=mxgraph.ios7.icons.data;fillColor=#f5f5f5;gradientColor=#C4C4C4;gradientDirection=north;" vertex="1" parent="1">
          <mxGeometry x="767" y="294" width="65.98" height="80" as="geometry" />
        </mxCell>
        <mxCell id="VkBxCyh6oDg-tgL7otwm-28" value="" style="html=1;verticalLabelPosition=bottom;align=center;labelBackgroundColor=#ffffff;verticalAlign=top;strokeWidth=2;strokeColor=#C2B067;shadow=0;dashed=0;shape=mxgraph.ios7.icons.data;fillColor=#fff2cc;gradientColor=#EFBF04;gradientDirection=north;" vertex="1" parent="1">
          <mxGeometry x="942.01" y="294" width="65.98" height="80" as="geometry" />
        </mxCell>
        <mxCell id="VkBxCyh6oDg-tgL7otwm-29" value="" style="shape=flexArrow;endArrow=classic;html=1;rounded=0;width=14;endSize=9.09;fillColor=#0E0E0E;strokeColor=#FFFFFF;" edge="1" parent="1">
          <mxGeometry width="50" height="50" relative="1" as="geometry">
            <mxPoint x="320" y="720" as="sourcePoint" />
            <mxPoint x="1280" y="720" as="targetPoint" />
          </mxGeometry>
        </mxCell>
        <mxCell id="VkBxCyh6oDg-tgL7otwm-32" value="&lt;font style=&quot;font-size: 13px;&quot;&gt;Raw Data&lt;/font&gt;" style="text;html=1;align=center;verticalAlign=middle;whiteSpace=wrap;rounded=0;" vertex="1" parent="1">
          <mxGeometry x="587.5" y="380" width="75" height="30" as="geometry" />
        </mxCell>
        <mxCell id="VkBxCyh6oDg-tgL7otwm-33" value="&lt;font style=&quot;&quot;&gt;&lt;font style=&quot;font-size: 13px;&quot;&gt;Cleaned&lt;br&gt;Standardized Data&lt;/font&gt;&lt;br&gt;&lt;/font&gt;" style="text;html=1;align=center;verticalAlign=middle;whiteSpace=wrap;rounded=0;" vertex="1" parent="1">
          <mxGeometry x="737" y="380" width="127" height="30" as="geometry" />
        </mxCell>
        <mxCell id="VkBxCyh6oDg-tgL7otwm-34" value="&lt;font style=&quot;font-size: 13px;&quot;&gt;Business Ready&amp;nbsp;&lt;/font&gt;&lt;div&gt;&lt;font style=&quot;font-size: 13px;&quot;&gt;Data&lt;/font&gt;&lt;/div&gt;" style="text;html=1;align=center;verticalAlign=middle;whiteSpace=wrap;rounded=0;" vertex="1" parent="1">
          <mxGeometry x="911.5" y="380" width="127" height="30" as="geometry" />
        </mxCell>
        <mxCell id="VkBxCyh6oDg-tgL7otwm-35" value="" style="endArrow=none;dashed=1;html=1;rounded=0;fillColor=#ffcd28;gradientColor=#ffa500;strokeColor=#d79b00;" edge="1" parent="1">
          <mxGeometry width="50" height="50" relative="1" as="geometry">
            <mxPoint x="570" y="424" as="sourcePoint" />
            <mxPoint x="680" y="424" as="targetPoint" />
          </mxGeometry>
        </mxCell>
        <mxCell id="VkBxCyh6oDg-tgL7otwm-36" value="" style="endArrow=none;dashed=1;html=1;rounded=0;fillColor=#f5f5f5;gradientColor=#b3b3b3;strokeColor=#666666;startSize=6;endSize=6;" edge="1" parent="1">
          <mxGeometry width="50" height="50" relative="1" as="geometry">
            <mxPoint x="745" y="424" as="sourcePoint" />
            <mxPoint x="855" y="424" as="targetPoint" />
          </mxGeometry>
        </mxCell>
        <mxCell id="VkBxCyh6oDg-tgL7otwm-37" value="" style="endArrow=none;dashed=1;html=1;rounded=0;fillColor=#fff2cc;gradientColor=#ffd966;strokeColor=#d6b656;" edge="1" parent="1">
          <mxGeometry width="50" height="50" relative="1" as="geometry">
            <mxPoint x="920" y="424" as="sourcePoint" />
            <mxPoint x="1030" y="424" as="targetPoint" />
          </mxGeometry>
        </mxCell>
        <mxCell id="VkBxCyh6oDg-tgL7otwm-38" value="&lt;font style=&quot;font-size: 11px;&quot;&gt;&lt;b&gt;Object Type&lt;/b&gt;: Tables&lt;br&gt;&lt;b&gt;Load:&lt;/b&gt;&lt;br&gt;&lt;/font&gt;&lt;ul style=&quot;&quot;&gt;&lt;li style=&quot;&quot;&gt;&lt;font style=&quot;font-size: 11px;&quot;&gt;Batch Processing&lt;/font&gt;&lt;/li&gt;&lt;li style=&quot;&quot;&gt;&lt;font style=&quot;font-size: 11px;&quot;&gt;Full Load&lt;/font&gt;&lt;/li&gt;&lt;li style=&quot;&quot;&gt;&lt;font style=&quot;font-size: 11px;&quot;&gt;Truncate &amp;amp; Insert&lt;/font&gt;&lt;/li&gt;&lt;/ul&gt;&lt;div&gt;&lt;font style=&quot;font-size: 11px;&quot;&gt;No &lt;b&gt;Transformations&lt;br&gt;&lt;br&gt;Data Model: &lt;/b&gt;None (as-is)&lt;/font&gt;&lt;/div&gt;" style="text;html=1;align=left;verticalAlign=middle;whiteSpace=wrap;rounded=0;fontColor=#FBFBFB;" vertex="1" parent="1">
          <mxGeometry x="559" y="424" width="135" height="149" as="geometry" />
        </mxCell>
        <mxCell id="VkBxCyh6oDg-tgL7otwm-39" value="&lt;font style=&quot;font-size: 11px;&quot;&gt;&lt;b&gt;Object Type:&lt;/b&gt; Views&lt;br&gt;&lt;br&gt;No &lt;b&gt;Load&lt;/b&gt;&lt;br&gt;&lt;br&gt;&lt;b&gt;Transformations:&lt;/b&gt;&lt;br&gt;&lt;/font&gt;&lt;ul style=&quot;&quot;&gt;&lt;li style=&quot;&quot;&gt;&lt;font style=&quot;font-size: 11px;&quot;&gt;Data Integrations&lt;/font&gt;&lt;/li&gt;&lt;li style=&quot;&quot;&gt;&lt;font style=&quot;font-size: 11px;&quot;&gt;Aggregations&lt;/font&gt;&lt;/li&gt;&lt;li style=&quot;&quot;&gt;&lt;font style=&quot;font-size: 11px;&quot;&gt;Business Logics&lt;/font&gt;&lt;/li&gt;&lt;/ul&gt;&lt;div&gt;&lt;span style=&quot;font-size: 11px;&quot;&gt;&lt;b&gt;Data Model:&amp;nbsp;&lt;/b&gt;&lt;br&gt;&lt;ul&gt;&lt;li&gt;&lt;span style=&quot;font-size: 11px;&quot;&gt;Star Schema&lt;/span&gt;&lt;/li&gt;&lt;li&gt;&lt;span style=&quot;font-size: 11px;&quot;&gt;Flat Table&lt;/span&gt;&lt;/li&gt;&lt;li&gt;&lt;span style=&quot;font-size: 11px;&quot;&gt;Aggregated Table&lt;/span&gt;&lt;/li&gt;&lt;/ul&gt;&lt;/span&gt;&lt;/div&gt;" style="text;html=1;align=left;verticalAlign=middle;whiteSpace=wrap;rounded=0;fontColor=#FBFBFB;" vertex="1" parent="1">
          <mxGeometry x="910.75" y="428" width="132.5" height="214" as="geometry" />
        </mxCell>
        <mxCell id="VkBxCyh6oDg-tgL7otwm-41" value="&lt;font style=&quot;font-size: 11px;&quot;&gt;&lt;b&gt;Object Type:&lt;/b&gt; Tables&lt;br&gt;&lt;br&gt;&lt;b&gt;Load:&lt;/b&gt;&lt;br&gt;&lt;ul&gt;&lt;li&gt;&lt;font style=&quot;font-size: 11px;&quot;&gt;Batch Processing&lt;/font&gt;&lt;/li&gt;&lt;li&gt;&lt;font style=&quot;font-size: 11px;&quot;&gt;Full Load&lt;/font&gt;&lt;/li&gt;&lt;li&gt;&lt;font style=&quot;font-size: 11px;&quot;&gt;Truncate &amp;amp; Insert&lt;/font&gt;&lt;/li&gt;&lt;/ul&gt;&lt;b&gt;Transformations:&lt;/b&gt;&lt;br&gt;&lt;/font&gt;&lt;ul style=&quot;&quot;&gt;&lt;li style=&quot;&quot;&gt;&lt;font style=&quot;font-size: 11px;&quot;&gt;Data Integrations&lt;/font&gt;&lt;/li&gt;&lt;li style=&quot;&quot;&gt;&lt;font style=&quot;font-size: 11px;&quot;&gt;Aggregations&lt;/font&gt;&lt;/li&gt;&lt;li style=&quot;&quot;&gt;&lt;font style=&quot;font-size: 11px;&quot;&gt;Business Logics&lt;/font&gt;&lt;/li&gt;&lt;/ul&gt;&lt;div&gt;&lt;span style=&quot;font-size: 11px;&quot;&gt;&lt;b&gt;Data Model: &lt;/b&gt;None (as-is)&lt;/span&gt;&lt;/div&gt;" style="text;html=1;align=left;verticalAlign=middle;whiteSpace=wrap;rounded=0;fontColor=#FBFBFB;" vertex="1" parent="1">
          <mxGeometry x="734.74" y="427" width="132.5" height="204" as="geometry" />
        </mxCell>
        <mxCell id="VkBxCyh6oDg-tgL7otwm-42" value="BI &amp;amp; Reporting" style="image;aspect=fixed;html=1;points=[];align=center;fontSize=12;image=img/lib/azure2/power_platform/PowerBI.svg;labelBackgroundColor=none;fontColor=#FFFFFF;" vertex="1" parent="1">
          <mxGeometry x="1162.4" y="289" width="51" height="68" as="geometry" />
        </mxCell>
        <mxCell id="VkBxCyh6oDg-tgL7otwm-43" value="Ad-Hoc&lt;br&gt;SQL Queries" style="shadow=0;dashed=0;html=1;strokeColor=none;fillColor=#4495D1;labelPosition=center;verticalLabelPosition=bottom;verticalAlign=top;align=center;outlineConnect=0;shape=mxgraph.veeam.magnifying_glass;pointerEvents=1;fontColor=#F1F1F1;" vertex="1" parent="1">
          <mxGeometry x="1162.4" y="406.5" width="55.2" height="54.4" as="geometry" />
        </mxCell>
        <mxCell id="VkBxCyh6oDg-tgL7otwm-44" value="&lt;font style=&quot;&quot;&gt;Machine Learning&lt;/font&gt;" style="sketch=0;points=[[0,0,0],[0.25,0,0],[0.5,0,0],[0.75,0,0],[1,0,0],[0,1,0],[0.25,1,0],[0.5,1,0],[0.75,1,0],[1,1,0],[0,0.25,0],[0,0.5,0],[0,0.75,0],[1,0.25,0],[1,0.5,0],[1,0.75,0]];outlineConnect=0;fontColor=#FFFCFC;fillColor=#01A88D;strokeColor=#ffffff;dashed=0;verticalLabelPosition=bottom;verticalAlign=top;align=center;html=1;fontSize=12;fontStyle=0;aspect=fixed;shape=mxgraph.aws4.resourceIcon;resIcon=mxgraph.aws4.machine_learning;" vertex="1" parent="1">
          <mxGeometry x="1151" y="521" width="78" height="78" as="geometry" />
        </mxCell>
        <mxCell id="VkBxCyh6oDg-tgL7otwm-45" value="" style="image;aspect=fixed;html=1;points=[];align=center;fontSize=12;image=img/lib/azure2/databases/SQL_Server.svg;" vertex="1" parent="1">
          <mxGeometry x="523" y="185" width="28" height="28" as="geometry" />
        </mxCell>
      </root>
    </mxGraphModel>
  </diagram>
</mxfile>
